<!-- GENERATED by scripts/gen-arch-figures.py — do not edit by hand. -->
<svg class="yz-fig yz-fig--capabilities" viewBox="0 0 760 434" xmlns="http://www.w3.org/2000/svg" role="img" aria-labelledby="capabilities-t capabilities-d">
<title id="capabilities-t">Capabilities by category: wired versus designed</title>
<desc id="capabilities-d">A stacked bar per category. Of 144 registered capabilities, 82 are wired and working and 62 are designed but not yet wired into the build. Formatting &amp; structure: 21 wired, 11 designed; Core dictation: 15 wired, 7 designed; Accuracy &amp; correction: 12 wired, 8 designed; Accessibility &amp; input modalities: 4 wired, 16 designed; Editing &amp; navigation: 12 wired, 2 designed; Commands &amp; automation: 6 wired, 6 designed; Learning, memory &amp; analytics: 5 wired, 4 designed; Conversation &amp; recording capture: 4 wired, 4 designed; Multilingual: 3 wired, 4 designed.</desc>
<rect class="yz-swatch yz-bar--ship" x="250" y="26" width="11" height="11" rx="3"/>
<text class="yz-l" x="268" y="36">wired and working — 82</text>
<rect class="yz-swatch yz-bar--plan" x="460" y="26" width="11" height="11" rx="3"/>
<text class="yz-l" x="478" y="36">designed, not wired — 62</text>
<text class="yz-s" x="250" y="58">all 144 capabilities in the registry, by category</text>
<path class="yz-grid" d="M 250 78 L 250 392"/>
<text class="yz-m" x="250" y="410" text-anchor="middle">0</text>
<path class="yz-grid" d="M 316.286 78 L 316.286 392"/>
<text class="yz-m" x="316.286" y="410" text-anchor="middle">5</text>
<path class="yz-grid" d="M 382.571 78 L 382.571 392"/>
<text class="yz-m" x="382.571" y="410" text-anchor="middle">10</text>
<path class="yz-grid" d="M 448.857 78 L 448.857 392"/>
<text class="yz-m" x="448.857" y="410" text-anchor="middle">15</text>
<path class="yz-grid" d="M 515.143 78 L 515.143 392"/>
<text class="yz-m" x="515.143" y="410" text-anchor="middle">20</text>
<path class="yz-grid" d="M 581.429 78 L 581.429 392"/>
<text class="yz-m" x="581.429" y="410" text-anchor="middle">25</text>
<path class="yz-grid" d="M 647.714 78 L 647.714 392"/>
<text class="yz-m" x="647.714" y="410" text-anchor="middle">30</text>
<path class="yz-grid" d="M 714 78 L 714 392"/>
<text class="yz-m" x="714" y="410" text-anchor="middle">35</text>
<text class="yz-m" x="482" y="428" text-anchor="middle">capabilities</text>
<text class="yz-l" x="236" y="100" text-anchor="end">Formatting &amp; structure</text>
<g class="yz-node"><title>Formatting &amp; structure — 21 wired and working</title>
<rect class="yz-bar yz-bar--ship" x="250" y="84" width="278.4" height="24" rx="4" style="--yz-delay:0s"/>
</g>
<g class="yz-node"><title>Formatting &amp; structure — 11 designed, not yet wired</title>
<rect class="yz-bar yz-bar--plan" x="530.4" y="84" width="143.829" height="24" rx="4" style="--yz-delay:0s"/>
</g>
<text class="yz-v yz-on-ship" x="520.4" y="100" text-anchor="end">21</text>
<text class="yz-v yz-on-plan" x="666.229" y="100" text-anchor="end">11</text>
<text class="yz-l" x="236" y="135" text-anchor="end">Core dictation</text>
<g class="yz-node"><title>Core dictation — 15 wired and working</title>
<rect class="yz-bar yz-bar--ship" x="250" y="119" width="198.857" height="24" rx="4" style="--yz-delay:0.06s"/>
</g>
<g class="yz-node"><title>Core dictation — 7 designed, not yet wired</title>
<rect class="yz-bar yz-bar--plan" x="450.857" y="119" width="90.8" height="24" rx="4" style="--yz-delay:0.06s"/>
</g>
<text class="yz-v yz-on-ship" x="440.857" y="135" text-anchor="end">15</text>
<text class="yz-v yz-on-plan" x="533.657" y="135" text-anchor="end">7</text>
<text class="yz-l" x="236" y="170" text-anchor="end">Accuracy &amp; correction</text>
<g class="yz-node"><title>Accuracy &amp; correction — 12 wired and working</title>
<rect class="yz-bar yz-bar--ship" x="250" y="154" width="159.086" height="24" rx="4" style="--yz-delay:0.12s"/>
</g>
<g class="yz-node"><title>Accuracy &amp; correction — 8 designed, not yet wired</title>
<rect class="yz-bar yz-bar--plan" x="411.086" y="154" width="104.057" height="24" rx="4" style="--yz-delay:0.12s"/>
</g>
<text class="yz-v yz-on-ship" x="401.086" y="170" text-anchor="end">12</text>
<text class="yz-v yz-on-plan" x="507.143" y="170" text-anchor="end">8</text>
<text class="yz-l" x="236" y="205" text-anchor="end">Accessibility &amp; input modalities</text>
<g class="yz-node"><title>Accessibility &amp; input modalities — 4 wired and working</title>
<rect class="yz-bar yz-bar--ship" x="250" y="189" width="53.0286" height="24" rx="4" style="--yz-delay:0.18s"/>
</g>
<g class="yz-node"><title>Accessibility &amp; input modalities — 16 designed, not yet wired</title>
<rect class="yz-bar yz-bar--plan" x="305.029" y="189" width="210.114" height="24" rx="4" style="--yz-delay:0.18s"/>
</g>
<text class="yz-v yz-on-ship" x="295.029" y="205" text-anchor="end">4</text>
<text class="yz-v yz-on-plan" x="507.143" y="205" text-anchor="end">16</text>
<text class="yz-l" x="236" y="240" text-anchor="end">Editing &amp; navigation</text>
<g class="yz-node"><title>Editing &amp; navigation — 12 wired and working</title>
<rect class="yz-bar yz-bar--ship" x="250" y="224" width="159.086" height="24" rx="4" style="--yz-delay:0.24s"/>
</g>
<g class="yz-node"><title>Editing &amp; navigation — 2 designed, not yet wired</title>
<rect class="yz-bar yz-bar--plan" x="411.086" y="224" width="24.5143" height="24" rx="4" style="--yz-delay:0.24s"/>
</g>
<text class="yz-v yz-on-ship" x="401.086" y="240" text-anchor="end">12</text>
<text class="yz-v yz-on-plan" x="427.6" y="240" text-anchor="end">2</text>
<text class="yz-l" x="236" y="275" text-anchor="end">Commands &amp; automation</text>
<g class="yz-node"><title>Commands &amp; automation — 6 wired and working</title>
<rect class="yz-bar yz-bar--ship" x="250" y="259" width="79.5429" height="24" rx="4" style="--yz-delay:0.3s"/>
</g>
<g class="yz-node"><title>Commands &amp; automation — 6 designed, not yet wired</title>
<rect class="yz-bar yz-bar--plan" x="331.543" y="259" width="77.5429" height="24" rx="4" style="--yz-delay:0.3s"/>
</g>
<text class="yz-v yz-on-ship" x="321.543" y="275" text-anchor="end">6</text>
<text class="yz-v yz-on-plan" x="401.086" y="275" text-anchor="end">6</text>
<text class="yz-l" x="236" y="310" text-anchor="end">Learning, memory &amp; analytics</text>
<g class="yz-node"><title>Learning, memory &amp; analytics — 5 wired and working</title>
<rect class="yz-bar yz-bar--ship" x="250" y="294" width="66.2857" height="24" rx="4" style="--yz-delay:0.36s"/>
</g>
<g class="yz-node"><title>Learning, memory &amp; analytics — 4 designed, not yet wired</title>
<rect class="yz-bar yz-bar--plan" x="318.286" y="294" width="51.0286" height="24" rx="4" style="--yz-delay:0.36s"/>
</g>
<text class="yz-v yz-on-ship" x="308.286" y="310" text-anchor="end">5</text>
<text class="yz-v yz-on-plan" x="361.314" y="310" text-anchor="end">4</text>
<text class="yz-l" x="236" y="345" text-anchor="end">Conversation &amp; recording capture</text>
<g class="yz-node"><title>Conversation &amp; recording capture — 4 wired and working</title>
<rect class="yz-bar yz-bar--ship" x="250" y="329" width="53.0286" height="24" rx="4" style="--yz-delay:0.42s"/>
</g>
<g class="yz-node"><title>Conversation &amp; recording capture — 4 designed, not yet wired</title>
<rect class="yz-bar yz-bar--plan" x="305.029" y="329" width="51.0286" height="24" rx="4" style="--yz-delay:0.42s"/>
</g>
<text class="yz-v yz-on-ship" x="295.029" y="345" text-anchor="end">4</text>
<text class="yz-v yz-on-plan" x="348.057" y="345" text-anchor="end">4</text>
<text class="yz-l" x="236" y="380" text-anchor="end">Multilingual</text>
<g class="yz-node"><title>Multilingual — 3 wired and working</title>
<rect class="yz-bar yz-bar--ship" x="250" y="364" width="39.7714" height="24" rx="4" style="--yz-delay:0.48s"/>
</g>
<g class="yz-node"><title>Multilingual — 4 designed, not yet wired</title>
<rect class="yz-bar yz-bar--plan" x="291.771" y="364" width="51.0286" height="24" rx="4" style="--yz-delay:0.48s"/>
</g>
<text class="yz-v yz-on-ship" x="281.771" y="380" text-anchor="end">3</text>
<text class="yz-v yz-on-plan" x="334.8" y="380" text-anchor="end">4</text>
</svg>
